<svg xmlns="http://www.w3.org/2000/svg" xml:space="preserve" fill="#dc3545" viewBox="0 0 325.594 368.981"><path d="M263.41 226.14V54.84H61.86l-20.805 12.3v247h212.89v-22.035h30.598c-.001 0-21.134-16.965-21.134-65.965zm-14-37h-36.45v-39h36.441v38.999zm-89.19-84v39h-40.75v-39h40.75zm6 0h40.75v39h-40.75v-39zm-90.356 0h37.605v39H75.858v-39zm0 45.001h37.605v39H75.858v-38.999zm0 44.998h37.605v31.008c0 2.792.059 5.451.166 7.994H75.854v-39.002zm43.606 31.008v-31.008h40.75v31.008c0 2.792.059 5.451.166 7.994h-40.745c-.111-2.53-.171-5.187-.171-7.994zm0-37.008v-39h40.75v38.999h-40.75zm46.75-38.998h40.75v38.999h-40.75v-38.999zm83.191-6H212.97v-39h36.441v39zm-135.41 96c1.581 19.828 6.476 31.323 11.354 37.963H86.229c-.952-.84-2.545-2.62-4.217-6.1-2.521-5.24-5.467-14.92-6.04-31.86h38.027zm19.349 37.963c-4.706-4.322-11.4-14.504-13.334-37.963h40.735c1.581 19.828 6.476 31.323 11.354 37.963H133.35zm46.75 0c-4.706-4.322-11.4-14.504-13.334-37.963h40.735c1.581 19.828 6.476 31.323 11.354 37.963H180.1zm-13.707-43.963c-.11-2.53-.171-5.188-.171-7.994v-31.008h40.75v31.008c0 2.792.059 5.451.166 7.994h-40.745zm46.579-7.994v-31.008h36.441v37.006c0 .672.011 1.332.018 1.996h-36.288c-.111-2.53-.171-5.187-.171-7.994zm26.976 73.992h-184.9V75.129l6.805-4.022v163.04c0 54 21.133 57.957 21.133 57.957h156.95v8.035zm14-22.035h-27.099c-4.706-4.322-11.4-14.504-13.334-37.963h36.072c.635 14.755 3.059 27.463 7.253 37.963h-2.892z"/></svg>