<svg xmlns="http://www.w3.org/2000/svg" xml:space="preserve" id="_x32_" width="800" height="800" version="1.1" viewBox="0 0 512 512"><style>.st0{fill:#0d6efd}</style><path d="M155.81 0v173.889h33.417V33.417h235.592l-74.87 50.656a30.79 30.79 0 0 0-13.535 25.503v286.24H189.227V282.079H155.81v147.154h180.604v70.93c0 4.382 2.423 8.404 6.29 10.451a11.841 11.841 0 0 0 12.189-.644l119.318-80.736V0H155.81z" class="st0"/><path d="M228.657 290.4a4.732 4.732 0 0 0 2.75 4.3 4.708 4.708 0 0 0 5.042-.685l78.044-66.035-78.044-66.034a4.708 4.708 0 0 0-5.042-.686 4.733 4.733 0 0 0-2.75 4.3v33.392H37.79v58.064h190.868V290.4z" class="st0"/></svg>